HIERARCHY
ROOT joint_Root
{
	OFFSET 0.0 0.0 0.0
	CHANNELS 6 Xposition Yposition Zposition Zrotation Xrotation Yrotation 
	JOINT Hips
	{
		OFFSET -0.726466 93.3139 -2.00062
		CHANNELS 6 Xposition Yposition Zposition Zrotation Xrotation Yrotation 
		JOINT Spine
		{
			OFFSET 15.7357 0.0 0.0
			CHANNELS 6 Xposition Yposition Zposition Zrotation Xrotation Yrotation 
			JOINT Chest
			{
				OFFSET 8.98455 -0.406207 0.0
				CHANNELS 6 Xposition Yposition Zposition Zrotation Xrotation Yrotation 
				JOINT Neck
				{
					OFFSET 16.3773 0.0 0.0
					CHANNELS 6 Xposition Yposition Zposition Zrotation Xrotation Yrotation 
					JOINT Head
					{
						OFFSET 6.45672 0.0 0.0
						CHANNELS 6 Xposition Yposition Zposition Zrotation Xrotation Yrotation 
						End Site
						{
							OFFSET 0.0 0.0 0.0
						}
					}
				}
				JOINT Shoulder_L
				{
					OFFSET 12.9942 -0.242716 4.98039
					CHANNELS 6 Xposition Yposition Zposition Zrotation Xrotation Yrotation 
					JOINT UpperArm_L
					{
						OFFSET 5.34809 0.0 0.0
						CHANNELS 6 Xposition Yposition Zposition Zrotation Xrotation Yrotation 
						JOINT LowerArm_L
						{
							OFFSET 24.3286 1.87007e-05 0.0
							CHANNELS 6 Xposition Yposition Zposition Zrotation Xrotation Yrotation 
							JOINT Hand_L
							{
								OFFSET 22.2916 0.0 0.0
								CHANNELS 6 Xposition Yposition Zposition Zrotation Xrotation Yrotation 
								End Site
								{
									OFFSET 0.0 0.0 0.0
								}
							}
						}
					}
				}
				JOINT Shoulder_R
				{
					OFFSET 12.9945 -0.242716 -4.98039
					CHANNELS 6 Xposition Yposition Zposition Zrotation Xrotation Yrotation 
					JOINT UpperArm_R
					{
						OFFSET -5.34813 0.0 0.0
						CHANNELS 6 Xposition Yposition Zposition Zrotation Xrotation Yrotation 
						JOINT LowerArm_R
						{
							OFFSET -24.3289 0.000322201 0.0
							CHANNELS 6 Xposition Yposition Zposition Zrotation Xrotation Yrotation 
							JOINT Hand_R
							{
								OFFSET -22.2915 -0.000108084 0.0
								CHANNELS 6 Xposition Yposition Zposition Zrotation Xrotation Yrotation 
								End Site
								{
									OFFSET 0.0 0.0 0.0
								}
							}
						}
					}
				}
			}
		}
		JOINT UpperLeg_L
		{
			OFFSET -2.19248 -6.46944 0.0
			CHANNELS 6 Xposition Yposition Zposition Zrotation Xrotation Yrotation 
			JOINT LowerLeg_L
			{
				OFFSET 39.0811 0.0 -1.23785e-05
				CHANNELS 6 Xposition Yposition Zposition Zrotation Xrotation Yrotation 
				JOINT Foot_L
				{
					OFFSET 40.9854 0.0 -1.26872e-05
					CHANNELS 6 Xposition Yposition Zposition Zrotation Xrotation Yrotation 
					JOINT Toes_L
					{
						OFFSET 11.7543 0.0 0.0
						CHANNELS 6 Xposition Yposition Zposition Zrotation Xrotation Yrotation 
						End Site
						{
							OFFSET 0.0 0.0 0.0
						}
					}
				}
			}
		}
		JOINT UpperLeg_R
		{
			OFFSET -2.19251 6.46944 0.0
			CHANNELS 6 Xposition Yposition Zposition Zrotation Xrotation Yrotation 
			JOINT LowerLeg_R
			{
				OFFSET -39.0811 -0.00228153 -0.0401928
				CHANNELS 6 Xposition Yposition Zposition Zrotation Xrotation Yrotation 
				JOINT Foot_R
				{
					OFFSET -40.9854 0.0 0.0
					CHANNELS 6 Xposition Yposition Zposition Zrotation Xrotation Yrotation 
					JOINT Toes_R
					{
						OFFSET -11.7543 0.0 0.0
						CHANNELS 6 Xposition Yposition Zposition Zrotation Xrotation Yrotation 
						End Site
						{
							OFFSET 0.0 0.0 0.0
						}
					}
				}
			}
		}
	}
}
MOTION
Frames:	4
Frame Time:	0.0333333
0.000000 0.000000 0.000000 0.000000 0.000000 -0.000000 -0.479813 92.482600 -1.374690 87.712300 -0.632164 4.086040 15.735700 0.000005 -0.000001 92.076900 85.682600 -92.836700 8.984550 -0.406207 -0.000000 0.865940 0.358557 -1.521230 16.377300 -0.000001 -0.000001 2.038380 -1.517050 1.039240 6.456720 -0.000001 -0.000000 2.468670 -1.565140 -7.992010 12.994200 -0.242716 4.980390 -89.775800 -0.684514 -71.860300 5.348090 -0.000007 -0.000001 -68.448700 34.817300 -12.420200 24.328600 0.000019 0.000005 1.943530 5.160630 -20.669100 22.291600 -0.000001 0.000005 6.296230 5.452020 -4.712070 12.994500 -0.242716 -4.980390 91.571400 -4.052160 -68.782300 -5.348130 -0.000001 -0.000004 -77.599400 -40.279500 -108.531000 -24.328900 0.000322 -0.000009 -1.734180 -1.381370 -51.471000 -22.291500 -0.000108 -0.000004 50.002800 5.111560 4.841630 -2.192480 -6.469440 -0.000000 -175.135000 -8.817740 -3.052900 39.081100 -0.000007 -0.000012 -0.097623 0.236108 22.463600 40.985400 -0.000006 -0.000013 0.085268 4.192900 -65.465900 11.754300 -0.000000 0.000003 -0.000056 -0.000625 -16.601800 -2.192510 6.469440 -0.000001 -179.741000 15.570200 179.940000 -39.081100 -0.002282 -0.040193 0.003666 -0.001024 18.459800 -40.985400 0.000008 0.000006 4.639950 7.677080 -64.989700 -11.754300 -0.000006 -0.000006 -0.007974 -0.087816 -20.149000
0.000000 0.000000 0.000000 0.000000 0.000000 -0.000000 -0.418764 92.485200 -1.381160 87.691500 -1.183840 4.040010 15.735700 0.000005 -0.000001 91.560300 85.691200 -92.176000 8.984550 -0.406207 -0.000000 0.850159 0.271708 -1.232410 16.377300 -0.000001 -0.000001 1.954160 -1.718450 1.193730 6.456720 -0.000001 -0.000000 2.414550 -1.621350 -8.068180 12.994200 -0.242716 4.980390 -89.764700 -0.723279 -71.979900 5.348090 -0.000007 -0.000001 -68.814800 35.091500 -12.072400 24.328600 0.000019 0.000005 1.980660 5.430970 -20.071500 22.291600 -0.000001 0.000005 6.241600 5.449580 -4.624630 12.994500 -0.242716 -4.980390 91.518100 -3.901310 -68.718300 -5.348130 -0.000001 -0.000004 -67.429700 -42.452700 -104.015000 -24.328900 0.000322 -0.000009 0.207948 0.137769 -56.256300 -22.291500 -0.000108 -0.000004 48.079400 5.170250 3.449770 -2.192480 -6.469440 -0.000000 -175.134000 -9.176320 -3.002140 39.081100 -0.000007 -0.000012 -0.099171 0.240152 22.438400 40.985400 -0.000006 -0.000013 0.079425 3.991410 -65.499600 11.754300 -0.000000 0.000003 -0.000051 -0.000578 -16.600000 -2.192510 6.469440 -0.000001 -179.713000 15.167400 179.832000 -39.081100 -0.002282 -0.040193 0.003899 -0.001720 18.483600 -40.985400 0.000008 0.000006 4.652700 7.785550 -64.950100 -11.754300 -0.000006 -0.000006 -0.008274 -0.090252 -20.248500
0.000000 0.000000 0.000000 0.000000 0.000000 -0.000000 -0.357527 92.490800 -1.389500 87.702800 -1.638900 4.050080 15.735700 0.000005 -0.000001 91.192200 85.687100 -91.687900 8.984550 -0.406207 -0.000000 0.858904 0.209271 -0.992194 16.377300 -0.000001 -0.000001 1.879900 -1.987000 1.361960 6.456720 -0.000001 -0.000000 2.405740 -1.905060 -8.022940 12.994200 -0.242716 4.980390 -89.750800 -0.772884 -72.127300 5.348090 -0.000007 -0.000001 -69.273700 35.118200 -11.791500 24.328600 0.000019 0.000005 2.011380 5.706200 -19.454100 22.291600 -0.000001 0.000005 6.314310 5.443960 -4.424760 12.994500 -0.242716 -4.980390 91.495100 -3.833270 -68.673800 -5.348130 -0.000001 -0.000004 -57.040900 -44.751700 -99.233100 -24.328900 0.000322 -0.000009 4.186800 2.249800 -61.771100 -22.291500 -0.000108 -0.000004 45.869400 5.250800 1.391110 -2.192480 -6.469440 -0.000000 -175.181000 -9.403070 -2.889290 39.081100 -0.000007 -0.000012 -0.097021 0.235739 22.370300 40.985400 -0.000006 -0.000013 0.079372 3.773060 -65.508000 11.754300 -0.000000 0.000003 -0.000060 -0.000665 -16.603300 -2.192510 6.469440 -0.000001 -179.767000 14.850200 179.808000 -39.081100 -0.002282 -0.040193 0.001492 0.005484 18.475100 -40.985400 0.000008 0.000006 4.546030 7.990320 -64.887700 -11.754300 -0.000006 -0.000006 -0.007969 -0.087782 -20.147600
0.000000 0.000000 0.000000 0.000000 0.000000 -0.000000 -0.349115 92.488600 -1.403840 87.666500 -1.912300 4.005110 15.735700 0.000005 -0.000001 90.935700 85.687600 -91.330400 8.984550 -0.406207 -0.000000 0.858273 0.164583 -0.789933 16.377300 -0.000001 -0.000001 1.824030 -2.322560 1.650050 6.456720 -0.000001 -0.000000 2.287330 -2.213810 -7.999920 12.994200 -0.242716 4.980390 -89.756300 -0.759143 -72.198700 5.348090 -0.000007 -0.000001 -69.546900 34.967200 -11.790400 24.328600 0.000019 0.000005 2.084950 6.084340 -18.955800 22.291600 -0.000001 0.000005 6.462250 5.441820 -4.349830 12.994500 -0.242716 -4.980390 91.465500 -3.754050 -68.657400 -5.348130 -0.000001 -0.000004 -48.311500 -46.854800 -95.201700 -24.328900 0.000322 -0.000009 11.129800 4.670510 -67.506000 -22.291500 -0.000108 -0.000004 43.149400 5.390270 -2.654800 -2.192480 -6.469440 -0.000000 -175.148000 -9.537390 -2.926350 39.081100 -0.000007 -0.000012 -0.098577 0.239042 22.410500 40.985400 -0.000006 -0.000013 0.052869 3.632540 -65.535600 11.754300 -0.000000 0.000003 -0.000054 -0.000603 -16.600900 -2.192510 6.469440 -0.000001 -179.717000 14.677700 179.724000 -39.081100 -0.002282 -0.040193 0.000674 0.007927 18.486200 -40.985400 0.000008 0.000006 4.508890 8.081230 -64.853300 -11.754300 -0.000006 -0.000006 -0.008062 -0.088538 -20.178500
